<?xml version="1.0" encoding="UTF-8"?>
<svg width="16px" height="23px" viewBox="0 0 16 23" version="1.1" xmlns="http://www.w3.org/2000/svg" xmlns:xlink="http://www.w3.org/1999/xlink">
    <!-- Generator: Sketch 44.1 (41455) - http://www.bohemiancoding.com/sketch -->
    <title>location copy</title>
    <desc>Created with Sketch.</desc>
    <defs></defs>
    <g id="Page-1-Copy" stroke="none" stroke-width="1" fill="none" fill-rule="evenodd">
        <g id="--首页-copy-18" transform="translate(-407.000000, -2282.000000)" fill="#D0011B">
            <g id="Group-3" transform="translate(407.000000, 2121.000000)">
                <path d="M7.69667564,171.697776 C6.18233831,171.697776 4.95061161,170.425446 4.95061161,168.861547 C4.95061161,167.297647 6.18233831,166.025317 7.69667564,166.025317 C9.21101296,166.025317 10.4433554,167.297647 10.4433554,168.861547 C10.4433554,170.425446 9.21101296,171.697776 7.69667564,171.697776 M7.69667564,163.860965 C4.99432698,163.860965 2.79562863,166.104162 2.79562863,168.861547 C2.79562863,171.618932 4.99432698,173.862128 7.69667564,173.862128 C10.3993322,173.862128 12.5983384,171.618932 12.5983384,168.861547 C12.5983384,166.104162 10.3993322,163.860965 7.69667564,163.860965 M7.69544422,183.922348 C6.86331294,182.994768 5.54846546,181.448802 4.23885152,179.58344 C1.46569628,175.633496 0,172.092306 0,169.342651 C0,161.60169 5.8907999,161 7.69636778,161 C14.8376735,161 15.3927356,167.385458 15.3927356,169.342651 C15.3927356,174.786616 9.87813412,181.484669 7.69544422,183.922348" id="location-copy"></path>
            </g>
        </g>
    </g>
</svg>